<?xml version="1.0" standalone="no"?>
<!DOCTYPE svg PUBLIC "-//W3C//DTD SVG 20010904//EN"
 "http://www.w3.org/TR/2001/REC-SVG-20010904/DTD/svg10.dtd">
<svg version="1.0" xmlns="http://www.w3.org/2000/svg"
 width="260.000000pt" height="260.000000pt" viewBox="0 0 260.000000 260.000000"
 preserveAspectRatio="xMidYMid meet">
<metadata>
Created by potrace 1.11, written by Peter Selinger 2001-2013
</metadata>
<g transform="translate(0.000000,260.000000) scale(0.100000,-0.100000)"
fill="#000000" stroke="none">
<path d="M654 1939 c-17 -5 -56 -22 -87 -39 -31 -17 -57 -27 -57 -23 0 4 -6 0
-12 -9 -7 -8 -38 -28 -68 -44 -30 -16 -57 -32 -60 -35 -3 -3 -21 -14 -40 -24
-19 -10 -37 -21 -40 -26 -3 -4 -12 -9 -20 -11 -8 -2 -19 -8 -25 -15 -5 -7 -16
-13 -24 -15 -14 -3 -41 -21 -66 -45 -8 -7 -18 -13 -23 -13 -5 0 -15 -7 -22
-15 -7 -8 -16 -13 -20 -10 -4 3 -11 -2 -14 -11 -4 -9 -9 -14 -12 -11 -3 3 -15
-4 -27 -16 -19 -19 -22 -34 -23 -117 -1 -52 -3 -164 -4 -249 -3 -153 -3 -155
21 -172 13 -10 32 -25 42 -33 9 -9 17 -14 17 -10 0 6 152 -97 162 -111 4 -5 8
-7 8 -2 0 8 83 -44 88 -56 2 -4 8 -5 13 -2 4 3 25 -5 46 -18 55 -35 184 -110
216 -126 15 -7 27 -17 27 -21 0 -10 63 -1 70 10 3 4 34 22 70 41 36 18 100 54
142 81 43 26 82 48 88 48 5 0 10 4 10 9 0 5 14 14 30 21 17 7 30 16 30 21 0 4
28 -8 63 -28 34 -19 78 -44 97 -55 19 -11 39 -23 43 -28 8 -7 64 16 77 31 3 4
23 16 45 28 22 12 47 26 56 32 12 9 24 6 57 -15 23 -14 47 -26 53 -26 7 0 9
-3 6 -7 -4 -3 17 -18 46 -32 28 -14 54 -28 57 -31 3 -3 43 -26 90 -50 47 -24
87 -46 90 -49 3 -4 16 -5 30 -4 14 2 31 4 38 5 6 1 12 4 12 8 0 3 15 14 33 24
17 9 41 22 52 29 45 28 110 61 118 59 4 -1 7 2 7 8 0 5 6 10 13 10 6 1 59 30
117 65 58 36 122 74 143 85 20 11 37 24 37 29 0 4 6 8 13 8 8 0 35 14 60 32
51 35 52 37 47 161 -1 30 -3 126 -3 213 0 86 -5 157 -9 157 -5 0 -7 4 -4 9 4
5 -14 17 -39 27 -25 9 -45 21 -45 25 0 5 -3 8 -7 7 -10 -3 -85 42 -95 56 -4 6
-8 7 -8 3 0 -9 -60 30 -71 46 -3 5 -9 7 -12 5 -3 -1 -17 7 -31 19 -14 13 -26
21 -26 19 0 -3 -22 10 -49 29 -27 18 -63 39 -80 46 -17 8 -31 17 -31 21 0 5
-9 8 -20 8 -11 0 -20 4 -20 9 0 5 -15 14 -32 21 -18 8 -41 20 -50 27 -15 13
-66 15 -78 3 -15 -15 -71 -50 -80 -50 -5 0 -10 -5 -10 -11 0 -5 -4 -8 -8 -5
-5 3 -21 -6 -36 -19 -16 -14 -33 -22 -37 -19 -5 3 -9 2 -9 -3 0 -4 -18 -17
-40 -27 -22 -11 -40 -24 -40 -29 0 -6 -3 -8 -6 -4 -4 3 -23 -5 -43 -18 -19
-14 -39 -25 -43 -25 -4 0 -29 13 -55 28 -102 61 -149 86 -164 89 -9 1 -42 -13
-73 -32 -31 -18 -56 -30 -56 -27 0 4 -4 2 -8 -3 -4 -6 -20 -19 -36 -29 -29
-18 -30 -18 -75 5 -25 13 -48 26 -51 29 -3 3 -34 21 -70 39 -36 19 -78 42 -95
52 -39 23 -137 71 -150 74 -5 1 -24 -2 -41 -6z"/>
</g>
</svg>
