<?xml version="1.0" standalone="no"?>
<!DOCTYPE svg PUBLIC "-//W3C//DTD SVG 20010904//EN"
 "http://www.w3.org/TR/2001/REC-SVG-20010904/DTD/svg10.dtd">
<svg version="1.0" xmlns="http://www.w3.org/2000/svg"
 width="500.000000pt" height="500.000000pt" viewBox="0 0 500.000000 500.000000"
 preserveAspectRatio="xMidYMid meet">
<metadata>
Created by potrace 1.11, written by Peter Selinger 2001-2013
</metadata>
<g transform="translate(0.000000,500.000000) scale(0.100000,-0.100000)"
fill="#000000" stroke="none">
<path d="M1325 4446 c-85 -69 -187 -171 -299 -296 -26 -30 -87 -96 -135 -145
-129 -136 -386 -434 -529 -617 l-53 -67 -5 -798 -5 -798 53 -66 c350 -436 381
-472 594 -684 88 -88 212 -216 275 -284 63 -68 137 -148 165 -178 l50 -54 206
208 c113 114 266 276 339 358 74 83 143 161 155 173 l21 24 64 -64 c36 -34
113 -116 173 -180 60 -65 113 -118 117 -118 13 0 193 191 256 272 20 27 42 48
49 48 6 0 33 -26 60 -57 122 -145 197 -226 349 -378 217 -216 274 -265 306
-265 22 0 44 19 116 98 48 53 192 201 319 327 127 127 251 255 275 284 24 30
62 75 84 100 23 26 65 75 95 111 30 36 71 81 90 100 20 19 68 72 108 117 l73
82 9 116 c6 72 6 210 0 373 -5 141 -10 453 -10 692 l-1 435 -22 25 c-12 14
-44 42 -70 63 -60 49 -305 319 -437 482 -116 143 -211 247 -404 443 -206 208
-210 210 -266 140 -44 -56 -191 -218 -306 -338 -50 -52 -113 -120 -140 -150
-27 -30 -56 -62 -65 -70 -9 -8 -34 -36 -56 -62 l-41 -47 -23 33 c-13 18 -97
108 -186 200 -179 184 -172 181 -228 114 -15 -18 -86 -95 -157 -171 l-130
-138 -31 40 c-17 22 -167 175 -333 341 -362 359 -327 342 -469 226z m1232
-408 c26 -29 90 -97 142 -151 52 -53 115 -126 141 -162 25 -35 97 -122 160
-192 64 -70 142 -159 175 -197 l60 -69 2 -751 2 -751 -94 -100 c-89 -95 -95
-99 -108 -80 -26 34 -167 323 -167 340 0 9 13 53 29 98 59 169 93 374 107 635
l6 132 -71 0 -71 0 0 -152 c0 -84 -5 -192 -10 -239 -11 -94 -52 -265 -68 -281
-14 -14 -87 169 -208 526 -35 103 -64 190 -64 191 0 2 18 25 40 51 52 63 121
197 156 304 25 77 28 99 28 240 l1 155 -33 71 c-46 97 -92 141 -164 156 -103
22 -185 -25 -247 -141 -91 -172 -93 -372 -6 -631 19 -57 35 -113 35 -125 0
-12 -14 -34 -31 -51 -43 -41 -125 -171 -161 -256 -54 -128 -79 -248 -85 -403
-12 -331 93 -603 266 -687 56 -27 171 -31 217 -8 64 32 114 75 169 146 32 40
60 74 62 74 2 0 22 -38 43 -85 l39 -85 85 0 c47 0 88 -5 91 -10 7 -12 -61 -93
-186 -225 -47 -49 -110 -117 -139 -150 -29 -33 -77 -85 -106 -115 -30 -30 -60
-64 -69 -75 -15 -20 -15 -20 -41 10 -84 95 -215 236 -324 348 -69 71 -159 165
-200 210 -41 45 -98 104 -126 132 -28 27 -57 61 -65 75 -12 21 -14 155 -17
768 l-3 742 73 88 c39 48 143 159 229 247 86 88 167 172 180 186 13 15 58 65
100 110 67 74 124 139 154 176 16 19 21 16 72 -39z m-1073 -97 c64 -31 110
-81 146 -156 69 -147 85 -240 77 -470 -6 -175 -20 -252 -66 -376 -31 -83 -94
-175 -138 -201 -77 -47 -93 -51 -265 -56 l-168 -5 0 648 0 647 183 -4 c168 -3
186 -5 231 -27z m-644 -1432 c0 -1024 -3 -1289 -12 -1289 -7 0 -47 39 -88 86
-41 48 -80 91 -85 98 -6 6 -33 40 -60 75 -28 35 -79 98 -115 140 -36 42 -80
95 -98 118 l-34 43 7 742 6 743 26 38 c32 45 328 394 391 459 25 26 49 45 54
42 4 -3 8 -585 8 -1295z m3143 1262 c137 -59 217 -221 217 -438 l0 -93 100 0
100 0 0 110 c0 80 3 110 12 110 7 0 63 -52 125 -115 l113 -115 0 -733 0 -732
-106 -113 c-58 -61 -110 -112 -115 -112 -4 0 -10 48 -11 108 l-3 107 -107 3
-108 3 0 -143 c0 -164 -14 -245 -59 -338 -58 -121 -136 -170 -271 -170 -140 0
-222 53 -312 202 -146 239 -218 675 -205 1238 7 277 17 398 47 560 67 360 181
580 335 651 76 36 179 39 248 10z m-1425 -167 c12 -8 32 -34 45 -57 18 -35 22
-57 21 -132 0 -76 -6 -104 -33 -178 -34 -90 -116 -216 -131 -201 -17 19 -70
206 -80 286 -14 114 9 227 57 280 20 23 90 24 121 2z m-118 -1016 c52 -165
124 -362 196 -536 29 -72 54 -138 54 -145 0 -25 -72 -118 -121 -157 -86 -68
-157 -66 -237 5 -54 49 -100 133 -123 225 -20 79 -17 316 4 403 27 109 76 215
129 278 27 33 50 59 52 59 2 0 23 -60 46 -132z m-1098 -261 c110 -174 189
-389 333 -907 31 -113 65 -232 75 -265 26 -82 50 -179 50 -200 0 -9 -82 -98
-181 -196 l-181 -179 -32 33 c-17 17 -78 84 -136 147 -58 63 -126 137 -152
165 l-48 50 0 691 c0 380 3 694 7 697 3 4 58 7 122 7 l116 0 27 -43z"/>
</g>
</svg>
